<?xml version="1.0" encoding="UTF-8" standalone="no"?>
<!DOCTYPE svg PUBLIC "-//W3C//DTD SVG 1.1//EN" "http://www.w3.org/Graphics/SVG/1.1/DTD/svg11.dtd">
<svg xmlns="http://www.w3.org/2000/svg" version="1.1" viewBox="0.00 0.00 160.00 160.00">
<path fill="#61de56" d="
  M 131.00 82.95
  A 15.31 15.31 0.0 0 1 115.69 98.26
  L 112.79 98.26
  A 15.31 15.31 0.0 0 1 97.48 82.95
  L 97.48 78.15
  A 15.31 15.31 0.0 0 1 112.79 62.84
  L 115.69 62.84
  A 15.31 15.31 0.0 0 1 131.00 78.15
  L 131.00 82.95
  Z
  M 121.2947 77.4777
  A 6.53 6.53 0.0 0 0 114.7533 70.9591
  L 113.6933 70.9609
  A 6.53 6.53 0.0 0 0 107.1747 77.5023
  L 107.1853 83.6023
  A 6.53 6.53 0.0 0 0 113.7267 90.1209
  L 114.7867 90.1191
  A 6.53 6.53 0.0 0 0 121.3053 83.5777
  L 121.2947 77.4777
  Z"
/>
<path fill="#61de56" d="
  M 50.62 91.31
  L 39.54 91.35
  A 0.35 0.35 0.0 0 0 39.21 91.60
  L 37.39 97.75
  A 0.35 0.35 0.0 0 1 37.06 98.00
  L 27.62 98.00
  A 0.35 0.35 0.0 0 1 27.29 97.54
  L 38.53 63.40
  A 0.35 0.35 0.0 0 1 38.86 63.16
  L 51.34 63.15
  A 0.35 0.35 0.0 0 1 51.67 63.39
  L 62.88 97.54
  A 0.35 0.35 0.0 0 1 62.55 98.00
  L 53.12 98.00
  A 0.35 0.35 0.0 0 1 52.79 97.75
  L 50.95 91.56
  A 0.35 0.35 0.0 0 0 50.62 91.31
  Z
  M 41.58 83.82
  A 0.34 0.34 0.0 0 0 41.90 84.26
  L 48.31 84.25
  A 0.34 0.34 0.0 0 0 48.64 83.81
  L 45.41 73.31
  A 0.34 0.34 0.0 0 0 44.76 73.31
  L 41.58 83.82
  Z"
/>
<path fill="#61de56" d="
  M 85.78 63.14
  L 95.68 63.16
  A 0.34 0.34 0.0 0 1 96.00 63.61
  L 84.79 97.77
  A 0.34 0.34 0.0 0 1 84.46 98.00
  L 71.99 98.00
  A 0.34 0.34 0.0 0 1 71.66 97.77
  L 60.45 63.61
  A 0.34 0.34 0.0 0 1 60.77 63.17
  L 70.67 63.14
  A 0.34 0.34 0.0 0 1 71.00 63.39
  L 77.91 87.16
  A 0.34 0.34 0.0 0 0 78.57 87.16
  L 85.45 63.39
  A 0.34 0.34 0.0 0 1 85.78 63.14
  Z"
/>
</svg>
