<svg width="500" height="500" viewBox="0 0 500 500" fill="none" xmlns="http://www.w3.org/2000/svg">
<g clip-path="url(#clip0_130_44)">
<path d="M331.986 208.655L325.11 193.575" stroke="#3B6B2D" stroke-width="2"/>
<path d="M332.27 149.894L299.886 148.127C299.384 148.092 298.905 147.903 298.511 147.584C297.661 146.885 296.963 146.033 296.415 145.03C292.289 137.485 288.063 129.852 283.736 122.131C273.942 104.673 264.517 86.217 253.6 69.3008C253.551 69.2241 253.484 69.1618 253.406 69.1193C253.327 69.0768 253.24 69.0555 253.15 69.0572C253.06 69.059 252.972 69.0837 252.893 69.1292C252.813 69.1747 252.745 69.2397 252.694 69.3183C247.764 77.3653 242.951 85.0975 238.993 93.9317C233.911 105.25 226.734 115.449 220.797 126.435C216.325 134.703 211.618 143.001 206.676 151.328C204.999 154.145 203.842 157.626 202.131 160.687C193.612 175.848 185.199 190.648 176.892 205.086C175.807 206.963 175.444 208.13 175.802 208.584" stroke="#3B6B2D" stroke-width="2"/>
<path d="M331.893 207.856L325.018 192.803C333.268 179.624 337.203 165.136 336.823 149.337C336.812 148.744 336.521 148.429 335.951 148.394C334.229 148.301 332.972 148.569 332.178 149.198L299.798 147.434C299.296 147.4 298.817 147.211 298.423 146.893C297.574 146.194 296.875 145.344 296.327 144.343C292.202 136.811 287.977 129.191 283.65 121.484C273.858 104.056 264.434 85.6329 253.518 68.7463C253.469 68.6698 253.402 68.6076 253.324 68.5652C253.245 68.5228 253.157 68.5015 253.068 68.5032C252.978 68.5049 252.89 68.5296 252.811 68.5751C252.731 68.6205 252.663 68.6853 252.612 68.7638C247.682 76.7967 242.87 84.5153 238.912 93.3341C233.832 104.633 226.655 114.813 220.719 125.78C216.247 134.034 211.541 142.317 206.6 150.63C204.923 153.441 203.766 156.916 202.056 159.972C193.537 175.107 185.125 189.88 176.819 204.293C175.735 206.167 175.372 207.332 175.729 207.786C172.834 210.952 170.391 214.975 168.402 219.853C168.297 220.106 168.122 220.323 167.898 220.475C167.675 220.627 167.412 220.708 167.144 220.708L118.13 220.761C117.582 220.761 117.443 220.51 117.711 220.01C123.323 209.229 128.968 198.711 134.647 188.454C144.658 170.38 154.702 152.201 165.232 133.953C167.211 130.518 169.117 126.671 170.95 122.41C173.248 117.101 176.769 112.456 179.586 107.444C186.226 95.6741 192.347 83.2929 199.725 72.0294C203.38 66.4762 205.325 60.1371 208.511 54.6887C217.142 39.9035 225.42 25.3453 233.345 11.0141C236.179 5.86257 240.069 2.42238 245.821 0.955498C255.714 -1.57662 269.347 0.623704 274.126 11.1887C280.397 25.0019 288.815 37.5926 296.059 50.5675C304.566 65.7951 313.364 81.6339 322.452 98.084C326.208 104.894 330.032 111.437 333.922 117.712C338.774 125.547 342.284 131.875 344.452 136.694C345.928 139.977 347.56 143.074 349.349 145.985C355.654 156.165 361.321 166.905 367.341 177.505C370.611 183.25 374.484 188.577 377.268 194.601C381.443 203.595 385.971 211.47 390.515 219.887C390.562 219.979 390.586 220.081 390.585 220.184C390.584 220.288 390.557 220.388 390.508 220.477C390.459 220.565 390.389 220.638 390.305 220.687C390.221 220.737 390.126 220.762 390.029 220.761L342.709 220.796C341.985 220.795 341.273 220.597 340.646 220.22C340.019 219.843 339.499 219.301 339.137 218.648C337.259 215.271 335.258 211.93 333.134 208.624C332.664 207.902 332.251 207.646 331.893 207.856Z" fill="#0D2615"/>
<path d="M347.066 69.8737C357.252 69.6326 365.327 61.0745 365.102 50.7588C364.878 40.443 356.439 32.2759 346.253 32.517C336.068 32.7582 327.992 41.3162 328.217 51.6319C328.441 61.9477 336.88 70.1148 347.066 69.8737Z" fill="#0D2615"/>
<path d="M332.303 149.564C314.288 155.773 297.16 162.794 280.921 170.627C280.284 170.931 280.083 170.739 280.318 170.049C282.373 163.887 283.959 157.544 285.075 151.02C285.377 149.243 284.941 149.015 283.769 150.336C269.417 166.319 259.666 185.236 254.517 207.089C253.668 210.713 254.244 210.982 256.243 207.895C263.581 196.566 273.717 186.534 285.963 180.361C297.858 174.351 310.418 169.669 323.642 166.313C324.133 166.196 324.34 166.395 324.262 166.909C323.279 173.106 321.497 178.432 318.917 182.886C314.896 189.849 310.457 197.583 304.945 203.283C291.978 216.682 275.844 223.007 256.544 222.259C249.96 221.996 245.37 221.47 241.399 215.104C227.416 192.678 225.863 168.891 236.742 143.742C236.813 143.581 236.924 143.443 237.062 143.341C237.201 143.24 237.363 143.179 237.532 143.164C237.701 143.15 237.87 143.183 238.023 143.26C238.176 143.337 238.306 143.455 238.401 143.601L246.509 156.106C246.551 156.174 246.61 156.229 246.679 156.264C246.749 156.3 246.827 156.315 246.906 156.308C246.984 156.3 247.06 156.272 247.126 156.224C247.192 156.176 247.245 156.111 247.28 156.036C252.926 143.549 260.515 133.833 270.433 125.415C270.923 124.998 271.252 124.408 271.357 123.756C271.461 123.104 271.336 122.434 271.003 121.872L254.551 93.9867C254.484 93.8781 254.392 93.7888 254.284 93.7269C254.176 93.6651 254.054 93.6327 253.931 93.6327C253.808 93.6327 253.686 93.6651 253.578 93.7269C253.47 93.7888 253.378 93.8781 253.311 93.9867C249.458 100.394 245.822 106.731 242.405 112.998C241.69 114.307 241.048 115.664 240.478 117.067C239.383 119.791 237.663 122.778 235.318 126.028C232.403 130.074 229.398 135.709 226.305 142.935C223.87 148.617 222.066 154.042 220.893 159.21C216.169 179.94 220.307 205.633 235.284 220.944C235.888 221.563 235.765 221.867 234.916 221.856L222.652 221.645C222.019 221.635 221.399 221.456 220.853 221.124C220.307 220.792 219.854 220.319 219.536 219.751C213.137 208.433 208.68 196.548 206.167 184.097C205.821 182.378 205.195 182.261 204.291 183.746C200.303 190.317 196.037 197.788 191.491 206.159C190.642 207.738 189.453 208.755 187.923 209.211C185.644 209.889 181.668 209.62 175.994 208.404C175.637 207.948 176 206.779 177.083 204.897C185.382 190.422 193.786 175.585 202.297 160.385C204.006 157.316 205.162 153.826 206.837 151.003C211.774 142.654 216.476 134.336 220.944 126.046C226.874 115.032 234.045 104.808 239.121 93.4606C243.075 84.604 247.883 76.8522 252.808 68.7847C252.859 68.7059 252.927 68.6409 253.007 68.5952C253.086 68.5496 253.174 68.5248 253.264 68.523C253.353 68.5213 253.441 68.5427 253.519 68.5853C253.598 68.6279 253.664 68.6903 253.713 68.7672C264.62 85.7264 274.035 104.229 283.819 121.732C288.141 129.472 292.363 137.124 296.484 144.689C297.032 145.694 297.73 146.548 298.579 147.249C298.972 147.569 299.45 147.758 299.952 147.793L332.303 149.564Z" fill="#68B044"/>
<path d="M324.499 193.387L330.769 209.134C325.325 210.279 319.845 210.443 314.329 209.627C313.86 209.554 313.774 209.299 314.069 208.86L324.499 193.387Z" fill="#68B044"/>
<path d="M493.313 358.476C490.923 364.775 487.053 369.705 484.058 375.654C482.847 378.051 481.108 380.49 478.842 382.97C467.142 395.72 453.238 403.815 437.13 407.254C423.277 410.213 410.73 410.389 399.49 407.78C395.867 406.938 392.019 405.95 387.947 404.815C370.532 399.937 354.228 383.883 346 368.618C335.197 348.603 332.628 326.952 338.293 303.662C339.157 300.106 340.464 296.562 342.214 293.029C344.603 288.239 345.932 283.098 348.961 278.589C354.665 270.079 361.833 261.727 370.717 256.586C375.731 253.691 380.46 250.2 385.81 248.199C407.045 240.234 427.348 240.087 446.721 247.761C453.507 250.451 460.608 254.475 468.023 259.832C474.282 264.359 479.369 269.74 483.284 275.975C487.087 282.046 490.306 288.257 492.942 294.609C501.535 315.254 501.658 336.544 493.313 358.476ZM452.274 326.367C452.274 316.65 448.572 307.332 441.983 300.461C435.395 293.591 426.458 289.731 417.141 289.731C412.527 289.731 407.958 290.678 403.696 292.52C399.433 294.361 395.56 297.059 392.298 300.461C389.035 303.863 386.447 307.902 384.682 312.347C382.916 316.792 382.008 321.556 382.008 326.367C382.008 331.178 382.916 335.942 384.682 340.387C386.447 344.832 389.035 348.87 392.298 352.272C395.56 355.674 399.433 358.373 403.696 360.214C407.958 362.055 412.527 363.003 417.141 363.003C426.458 363.003 435.395 359.143 441.983 352.272C448.572 345.402 452.274 336.083 452.274 326.367Z" fill="#0D2615"/>
<path d="M58.0747 385.576L49.5745 404.576C49.5296 404.675 49.4582 404.759 49.3687 404.818C49.2792 404.876 49.1754 404.907 49.0695 404.907L0.0378972 405.046C-0.05575 405.046 -0.14796 405.022 -0.230163 404.976C-0.312366 404.929 -0.381894 404.862 -0.43228 404.781C-0.482666 404.699 -0.512277 404.606 -0.518359 404.509C-0.52444 404.413 -0.506798 404.316 -0.467068 404.228L70.4294 245.542C70.4743 245.443 70.5457 245.36 70.6352 245.301C70.7246 245.242 70.8284 245.211 70.9343 245.212L109.429 245.16C109.535 245.159 109.639 245.19 109.728 245.249C109.818 245.307 109.889 245.391 109.934 245.49L180.41 404.106C180.449 404.194 180.467 404.291 180.461 404.387C180.455 404.484 180.425 404.577 180.375 404.659C180.325 404.741 180.255 404.808 180.173 404.854C180.091 404.9 179.998 404.925 179.905 404.924L131.546 404.976C131.441 404.977 131.337 404.946 131.247 404.887C131.158 404.829 131.086 404.745 131.041 404.646L122.238 385.437C122.193 385.337 122.122 385.254 122.033 385.195C121.943 385.136 121.839 385.106 121.733 385.106L58.5796 385.245C58.4737 385.245 58.3699 385.276 58.2805 385.334C58.191 385.393 58.1196 385.477 58.0747 385.576ZM75.6978 341.85C75.6608 341.93 75.6439 342.018 75.6487 342.106C75.6535 342.194 75.6799 342.279 75.7253 342.354C75.7706 342.429 75.8336 342.49 75.9083 342.533C75.983 342.576 76.0669 342.598 76.1523 342.598L104.009 342.737C104.094 342.739 104.177 342.718 104.252 342.678C104.327 342.637 104.391 342.578 104.438 342.505C104.485 342.432 104.513 342.349 104.521 342.262C104.528 342.174 104.514 342.087 104.481 342.007L90.712 308.999C90.6727 308.906 90.608 308.827 90.5257 308.771C90.4435 308.716 90.3474 308.686 90.2491 308.686C90.1508 308.686 90.0546 308.716 89.9724 308.771C89.8902 308.827 89.8255 308.906 89.7862 308.999L75.6978 341.85Z" fill="#0D2615"/>
<path d="M250.584 341.471C258.486 326.461 266.07 311.318 273.336 296.04C282.175 277.467 290.524 260.797 298.381 246.03C298.671 245.485 299.118 245.206 299.721 245.194H348.388C349.114 245.194 349.337 245.549 349.058 246.257C347.083 251.016 344.811 256.014 342.244 261.249C335.659 274.704 329.281 287.404 323.109 299.349C319.995 305.374 316.987 311.614 314.085 318.068C310.893 325.149 307.963 331.36 305.296 336.7C296.545 354.217 287.388 372.281 277.823 390.889C275.512 395.364 274.692 400.432 271.394 404.35C271.014 404.791 270.546 405.011 269.987 405.011L231.9 405.046C231.026 405.046 230.17 404.797 229.423 404.327C228.676 403.858 228.068 403.185 227.665 402.382C221.493 390.077 215.282 378.079 209.031 366.389C206.085 360.852 204.36 355.21 201.548 349.847C193.144 333.78 184.711 317.226 176.251 300.185C175.213 298.095 174.108 296.058 172.936 294.073C170.643 290.19 169.622 285.836 167.646 281.797C165.068 276.468 162.451 271.105 159.794 265.707C156.546 259.108 152.679 252.874 149.883 246.03C149.66 245.496 149.827 245.229 150.385 245.229L200.677 245.16C201.269 245.16 201.754 245.398 202.134 245.874C203.06 247.023 203.747 248.3 204.193 249.704C205.65 254.18 207.725 257.575 209.701 261.615C214.723 271.889 220.036 282.389 225.639 293.115C231.231 303.807 236.102 313.808 240.254 323.118C243.134 329.561 246.599 335.411 249.965 341.489C249.996 341.546 250.042 341.593 250.097 341.626C250.153 341.658 250.216 341.674 250.279 341.673C250.343 341.671 250.405 341.651 250.458 341.616C250.512 341.58 250.555 341.53 250.584 341.471Z" fill="#0D2615"/>
<path d="M54.9423 460.036L52.3267 467.018C52.2809 467.138 52.2016 467.24 52.0991 467.313C51.9965 467.386 51.8753 467.425 51.751 467.426L44.5952 467.409C44.4923 467.411 44.3905 467.387 44.2989 467.338C44.2073 467.29 44.1287 467.218 44.0701 467.131C44.0115 467.044 43.9748 466.943 43.963 466.837C43.9513 466.731 43.9651 466.625 44.003 466.526L56.2089 434.402C56.2547 434.282 56.334 434.18 56.4365 434.107C56.5391 434.035 56.6603 433.995 56.7847 433.994L63.6937 433.977C63.8199 433.979 63.9426 434.021 64.0453 434.097C64.1481 434.173 64.2262 434.279 64.2694 434.402L76.1299 466.611C76.1644 466.709 76.1755 466.814 76.1621 466.917C76.1488 467.02 76.1114 467.119 76.0532 467.204C75.995 467.289 75.9177 467.358 75.8279 467.406C75.7382 467.453 75.6386 467.478 75.5377 467.477L68.0858 467.375C67.9527 467.374 67.8234 467.329 67.7169 467.246C67.6104 467.164 67.5322 467.048 67.4936 466.916L65.4703 460.121C65.4317 459.99 65.3535 459.874 65.247 459.792C65.1405 459.709 65.0112 459.664 64.8781 459.663L55.518 459.629C55.3937 459.63 55.2724 459.669 55.1699 459.742C55.0673 459.814 54.9881 459.917 54.9423 460.036ZM61.3907 446.803C61.3831 446.656 61.3285 446.517 61.2357 446.405C61.1428 446.294 61.0168 446.218 60.8775 446.189C60.7382 446.16 60.5935 446.179 60.466 446.244C60.3386 446.309 60.2356 446.416 60.1734 446.548L58.5119 450.489C58.0842 451.508 58.4132 451.995 59.4989 451.95L61.3907 451.865C62.5093 451.809 62.7999 451.271 62.2625 450.251C61.7032 449.164 61.4126 448.015 61.3907 446.803Z" fill="#0D2615"/>
<path d="M109.663 452.248L116.527 434.419C116.566 434.31 116.638 434.215 116.733 434.149C116.828 434.082 116.942 434.045 117.059 434.045L124.97 434.096C125.015 434.096 125.06 434.107 125.1 434.128C125.14 434.148 125.175 434.177 125.2 434.212C125.225 434.248 125.241 434.288 125.246 434.33C125.251 434.372 125.245 434.414 125.228 434.453L113.095 466.406C112.82 467.131 112.3 467.488 111.533 467.477L105.836 467.409C105.104 467.397 104.6 467.046 104.326 466.355C103.639 464.599 103.039 462.803 102.524 460.967C100.167 452.344 97.0152 443.512 93.0682 434.47C93.0454 434.416 93.0357 434.357 93.0401 434.298C93.0445 434.24 93.0628 434.184 93.0934 434.135C93.1239 434.086 93.1658 434.046 93.2153 434.019C93.2648 433.991 93.3204 433.977 93.3771 433.977L100.739 434.028C100.866 434.029 100.99 434.066 101.094 434.136C101.198 434.206 101.278 434.304 101.323 434.419L108.238 452.265C108.707 453.489 109.182 453.483 109.663 452.248Z" fill="#0D2615"/>
<path d="M158.93 469C154.862 468.985 150.967 467.045 148.102 463.608C145.237 460.17 143.636 455.516 143.652 450.67C143.668 445.824 145.299 441.182 148.186 437.766C151.074 434.35 154.981 432.44 159.049 432.455C163.117 432.47 167.012 434.41 169.877 437.847C172.742 441.285 174.342 445.938 174.327 450.785C174.311 455.631 172.68 460.273 169.792 463.689C166.905 467.105 162.997 469.015 158.93 469ZM159.388 460.644C161.312 460.633 163.152 459.539 164.503 457.602C165.853 455.664 166.605 453.043 166.591 450.314C166.578 447.585 165.801 444.972 164.431 443.05C163.061 441.128 161.211 440.055 159.287 440.065C157.364 440.076 155.524 441.171 154.173 443.108C152.822 445.045 152.071 447.666 152.084 450.395C152.098 453.124 152.875 455.737 154.244 457.659C155.614 459.581 157.465 460.655 159.388 460.644Z" fill="#0D2615"/>
<path d="M208.272 459.31H219.738C219.893 459.31 220.042 459.375 220.152 459.489C220.262 459.604 220.323 459.759 220.323 459.921L220.34 466.866C220.34 467.028 220.278 467.183 220.168 467.298C220.058 467.413 219.909 467.477 219.754 467.477L200.986 467.426C200.831 467.426 200.682 467.362 200.572 467.247C200.463 467.132 200.401 466.977 200.401 466.815V434.843C200.401 434.684 200.46 434.531 200.567 434.417C200.673 434.303 200.818 434.236 200.97 434.232L207.036 433.977C207.113 433.975 207.19 433.989 207.262 434.017C207.333 434.046 207.399 434.089 207.455 434.144C207.511 434.199 207.556 434.266 207.587 434.339C207.619 434.412 207.636 434.491 207.638 434.572L207.687 458.699C207.687 458.861 207.748 459.016 207.858 459.131C207.968 459.246 208.117 459.31 208.272 459.31Z" fill="#0D2615"/>
<path d="M256.969 460.671C258.78 460.975 260.465 459.585 262.024 456.502C262.306 455.962 262.448 455.359 262.437 454.751L262.419 435.343C262.419 434.479 262.838 434.047 263.674 434.047L269.657 434.03C270.54 434.03 270.964 434.485 270.93 435.396C270.769 440.184 270.769 444.995 270.93 449.829C271.256 460.303 268.179 469.324 256.179 468.991C248.975 468.798 243.903 463.018 243.525 455.977C243.319 452.077 243.29 445.187 243.439 435.308C243.443 434.98 243.573 434.666 243.801 434.434C244.029 434.202 244.337 434.069 244.66 434.065L250.78 433.977C250.931 433.975 251.08 434.003 251.22 434.061C251.359 434.119 251.486 434.205 251.594 434.315C251.701 434.424 251.786 434.554 251.844 434.698C251.902 434.841 251.932 434.995 251.932 435.151L251.949 454.646C251.949 458.102 253.623 460.11 256.969 460.671Z" fill="#0D2615"/>
<path d="M300.641 441.946L293.348 441.999C293.228 442.001 293.108 441.979 292.997 441.934C292.885 441.888 292.783 441.821 292.697 441.734C292.611 441.648 292.543 441.546 292.496 441.432C292.45 441.319 292.426 441.197 292.426 441.074L292.443 434.902C292.443 434.78 292.467 434.66 292.512 434.548C292.558 434.436 292.624 434.334 292.708 434.248C292.792 434.162 292.892 434.094 293.002 434.047C293.112 434.001 293.229 433.977 293.348 433.977H317.49C317.727 433.977 317.954 434.072 318.124 434.242C318.293 434.411 318.39 434.642 318.395 434.884L318.499 441.092C318.502 441.216 318.479 441.34 318.434 441.455C318.388 441.571 318.32 441.676 318.234 441.764C318.148 441.852 318.046 441.921 317.933 441.968C317.82 442.014 317.699 442.037 317.577 442.035L310.91 441.91C310.79 441.908 310.671 441.93 310.559 441.975C310.447 442.021 310.345 442.088 310.259 442.175C310.173 442.261 310.105 442.363 310.058 442.477C310.012 442.59 309.988 442.712 309.988 442.835L310.023 468.075C310.023 468.198 309.999 468.319 309.952 468.433C309.906 468.546 309.837 468.649 309.752 468.735C309.666 468.821 309.564 468.889 309.452 468.934C309.34 468.98 309.221 469.002 309.1 469L302.434 468.875C302.197 468.87 301.971 468.771 301.805 468.598C301.639 468.425 301.546 468.192 301.546 467.95L301.564 442.871C301.564 442.748 301.54 442.626 301.493 442.512C301.447 442.399 301.378 442.296 301.292 442.21C301.207 442.124 301.105 442.056 300.993 442.011C300.881 441.965 300.761 441.943 300.641 441.946Z" fill="#0D2615"/>
<path d="M389.705 469C385.84 468.969 382.146 467.015 379.435 463.567C376.724 460.119 375.218 455.459 375.248 450.613C375.263 448.214 375.655 445.84 376.401 443.629C377.147 441.418 378.232 439.412 379.596 437.726C380.959 436.04 382.574 434.707 384.347 433.802C386.121 432.898 388.018 432.44 389.932 432.455C393.796 432.485 397.49 434.439 400.201 437.888C402.912 441.336 404.418 445.995 404.388 450.842C404.373 453.241 403.982 455.614 403.236 457.825C402.49 460.037 401.404 462.043 400.041 463.729C398.677 465.415 397.062 466.748 395.289 467.653C393.516 468.557 391.618 469.015 389.705 469ZM389.55 460.644C390.454 460.641 391.348 460.371 392.182 459.851C393.015 459.33 393.771 458.57 394.408 457.612C395.044 456.654 395.547 455.517 395.889 454.268C396.231 453.018 396.405 451.679 396.401 450.328C396.397 448.977 396.215 447.639 395.865 446.392C395.515 445.145 395.004 444.013 394.362 443.06C393.72 442.107 392.959 441.352 392.123 440.838C391.286 440.324 390.39 440.062 389.486 440.065C388.582 440.069 387.688 440.338 386.855 440.859C386.021 441.379 385.265 442.14 384.629 443.098C383.993 444.056 383.489 445.192 383.147 446.442C382.805 447.692 382.631 449.03 382.636 450.382C382.64 451.733 382.822 453.07 383.172 454.317C383.521 455.564 384.032 456.697 384.674 457.65C385.316 458.603 386.077 459.358 386.914 459.871C387.75 460.385 388.646 460.648 389.55 460.644Z" fill="#0D2615"/>
<path d="M438.456 468.946L431.015 468.858C430.868 468.858 430.728 468.798 430.624 468.692C430.521 468.586 430.462 468.441 430.462 468.291V434.579C430.462 434.503 430.477 434.428 430.506 434.358C430.535 434.288 430.577 434.225 430.63 434.172C430.683 434.119 430.746 434.078 430.815 434.051C430.884 434.023 430.958 434.01 431.032 434.013L437.576 434.137C437.66 434.139 437.743 434.16 437.818 434.2C437.892 434.24 437.957 434.297 438.007 434.367L449.109 449.612C449.178 449.711 449.277 449.785 449.39 449.822C449.504 449.859 449.626 449.857 449.738 449.818C449.851 449.778 449.948 449.702 450.015 449.601C450.082 449.5 450.115 449.379 450.11 449.257L450.076 434.703C450.076 434.556 450.131 434.414 450.231 434.309C450.331 434.203 450.467 434.141 450.611 434.137L457.482 433.977C457.556 433.975 457.63 433.988 457.699 434.015C457.768 434.043 457.831 434.084 457.884 434.137C457.938 434.19 457.98 434.253 458.009 434.323C458.037 434.393 458.052 434.468 458.052 434.544L458.07 468.415C458.072 468.493 458.059 468.57 458.031 468.642C458.003 468.714 457.961 468.779 457.908 468.834C457.855 468.889 457.791 468.932 457.721 468.96C457.65 468.989 457.575 469.002 457.5 469L451.612 468.893C451.524 468.892 451.436 468.869 451.358 468.826C451.28 468.782 451.213 468.721 451.163 468.645L440.027 451.825C439.96 451.728 439.864 451.656 439.754 451.618C439.644 451.58 439.525 451.579 439.415 451.614C439.304 451.649 439.207 451.719 439.137 451.814C439.067 451.909 439.028 452.025 439.026 452.143L439.009 468.38C439.009 468.53 438.95 468.674 438.847 468.78C438.743 468.887 438.603 468.946 438.456 468.946Z" fill="#0D2615"/>
<path d="M348.53 433.977H343.683C343.327 433.977 343.039 434.336 343.039 434.778V466.676C343.039 467.118 343.327 467.477 343.683 467.477H348.53C348.886 467.477 349.174 467.118 349.174 466.676V434.778C349.174 434.336 348.886 433.977 348.53 433.977Z" fill="#0D2615"/>
</g>
<defs>
<clipPath id="clip0_130_44">
<rect width="500" height="500" fill="white"/>
</clipPath>
</defs>
</svg>
