<?xml version="1.0" encoding="UTF-8" standalone="no"?>
<!DOCTYPE svg PUBLIC "-//W3C//DTD SVG 1.1//EN" "http://www.w3.org/Graphics/SVG/1.1/DTD/svg11.dtd">
<svg xmlns="http://www.w3.org/2000/svg" version="1.1" viewBox="0.00 0.00 500.00 500.00">
<g stroke-width="2.00" fill="none" stroke-linecap="butt">
<path stroke="#3b6b2d" vector-effect="non-scaling-stroke" d="
  M 294.28 232.30
  L 290.18 223.68"
/>
<path stroke="#3b6b2d" vector-effect="non-scaling-stroke" d="
  M 294.45 198.71
  L 275.14 197.70
  A 1.51 1.48 -23.7 0 1 274.32 197.39
  Q 273.56 196.79 273.07 195.93
  Q 269.38 189.46 265.51 182.84
  C 259.67 172.86 254.05 162.31 247.54 152.64
  A 0.33 0.32 -45.5 0 0 247.00 152.65
  C 244.06 157.25 241.19 161.67 238.83 166.72
  C 235.80 173.19 231.52 179.02 227.98 185.30
  Q 223.98 192.39 219.56 199.53
  C 218.56 201.14 217.87 203.13 216.85 204.88
  Q 209.23 217.88 201.80 230.26
  Q 200.83 231.87 201.15 232.26"
/>
</g>
<path fill="#0d2615" d="
  M 294.28 232.30
  L 290.18 223.68
  Q 297.56 212.36 297.22 198.79
  Q 297.21 198.28 296.70 198.25
  Q 295.16 198.17 294.45 198.71
  L 275.14 197.70
  A 1.51 1.48 -23.7 0 1 274.32 197.39
  Q 273.56 196.79 273.07 195.93
  Q 269.38 189.46 265.51 182.84
  C 259.67 172.86 254.05 162.31 247.54 152.64
  A 0.33 0.32 -45.5 0 0 247.00 152.65
  C 244.06 157.25 241.19 161.67 238.83 166.72
  C 235.80 173.19 231.52 179.02 227.98 185.30
  Q 223.98 192.39 219.56 199.53
  C 218.56 201.14 217.87 203.13 216.85 204.88
  Q 209.23 217.88 201.80 230.26
  Q 200.83 231.87 201.15 232.26
  Q 198.56 234.98 196.78 239.17
  A 0.82 0.81 11.4 0 1 196.03 239.66
  L 166.80 239.69
  Q 166.31 239.69 166.55 239.26
  Q 171.57 230.00 176.65 221.19
  C 182.62 210.84 188.61 200.43 194.89 189.98
  Q 196.66 187.03 198.30 183.37
  C 199.67 180.33 201.77 177.67 203.45 174.80
  C 207.41 168.06 211.06 160.97 215.46 154.52
  C 217.64 151.34 218.80 147.71 220.70 144.59
  Q 228.42 131.89 235.51 119.58
  C 237.20 116.63 239.52 114.66 242.95 113.82
  C 248.85 112.37 256.98 113.63 259.83 119.68
  C 263.57 127.59 268.59 134.80 272.91 142.23
  Q 280.52 155.31 288.65 169.44
  Q 292.01 175.29 295.49 180.68
  Q 299.83 187.41 301.77 191.55
  Q 303.09 194.37 304.69 196.87
  C 308.45 202.70 311.83 208.85 315.42 214.92
  C 317.37 218.21 319.68 221.26 321.34 224.71
  C 323.83 229.86 326.53 234.37 329.24 239.19
  A 0.34 0.33 75.3 0 1 328.95 239.69
  L 300.73 239.71
  A 2.46 2.46 0.0 0 1 298.60 238.48
  Q 296.92 235.58 295.02 232.74
  Q 294.60 232.12 294.28 232.30
  Z"
/>
<ellipse fill="#0d2615" cx="0.00" cy="0.00" transform="translate(303.03,142.29) rotate(-1.3)" rx="11.00" ry="10.68"/>
<path fill="#68b044" d="
  M 294.45 198.71
  Q 278.32 204.02 263.78 210.72
  Q 263.21 210.98 263.42 210.39
  Q 265.26 205.12 266.26 199.54
  Q 266.53 198.02 265.48 199.15
  Q 252.63 212.82 248.02 231.51
  Q 247.26 234.61 249.05 231.97
  C 253.43 225.51 259.48 219.79 266.79 216.27
  Q 277.44 211.13 289.28 208.26
  Q 289.72 208.16 289.65 208.60
  Q 288.77 213.90 286.46 217.71
  C 284.06 221.68 281.41 226.09 278.12 229.34
  Q 266.51 240.80 249.23 240.16
  C 245.30 240.01 242.56 239.71 240.19 236.08
  Q 227.67 216.90 237.41 195.39
  A 0.57 0.57 0.0 0 1 238.40 195.31
  L 243.24 202.44
  A 0.27 0.26 -49.6 0 0 243.70 202.40
  C 247.07 195.28 251.60 189.74 257.52 184.94
  A 1.55 1.55 0.0 0 0 257.86 182.92
  L 248.04 167.02
  A 0.44 0.44 0.0 0 0 247.30 167.02
  Q 243.85 172.50 240.79 177.86
  Q 240.15 178.98 239.64 180.18
  Q 238.66 182.51 236.56 185.29
  Q 233.95 188.75 231.18 194.93
  Q 229.00 199.79 227.95 204.21
  C 225.13 216.03 227.60 230.68 236.54 239.41
  Q 237.08 239.94 236.32 239.93
  L 229.00 239.81
  A 2.20 2.18 -14.5 0 1 227.14 238.73
  Q 221.41 229.05 219.16 218.40
  Q 218.85 216.93 218.04 218.20
  Q 214.47 223.82 210.40 230.98
  Q 209.64 232.33 208.27 232.72
  Q 206.23 233.30 201.15 232.26
  Q 200.83 231.87 201.80 230.26
  Q 209.23 217.88 216.85 204.88
  C 217.87 203.13 218.56 201.14 219.56 199.53
  Q 223.98 192.39 227.98 185.30
  C 231.52 179.02 235.80 173.19 238.83 166.72
  C 241.19 161.67 244.06 157.25 247.00 152.65
  A 0.33 0.32 -45.5 0 1 247.54 152.64
  C 254.05 162.31 259.67 172.86 265.51 182.84
  Q 269.38 189.46 273.07 195.93
  Q 273.56 196.79 274.32 197.39
  A 1.51 1.48 -23.7 0 0 275.14 197.70
  L 294.45 198.71
  Z"
/>
<path fill="#68b044" d="
  M 290.18 223.68
  L 294.28 232.30
  Q 288.94 233.24 283.53 232.57
  Q 283.07 232.51 283.36 232.15
  L 290.18 223.68
  Z"
/>
<path fill="#0d2615" d="
  M 390.49 317.53
  C 389.07 321.12 386.77 323.93 384.99 327.32
  Q 383.91 329.37 381.89 331.49
  Q 371.46 342.39 357.10 345.33
  Q 344.75 347.86 334.73 345.63
  Q 331.50 344.91 327.87 343.94
  C 317.52 341.16 307.83 332.01 302.94 323.31
  Q 293.31 306.20 298.36 286.29
  Q 299.13 283.25 300.69 280.23
  C 302.11 277.50 302.90 274.57 304.70 272.00
  C 308.09 267.15 312.35 262.39 317.63 259.46
  C 320.61 257.81 323.42 255.82 326.60 254.68
  Q 345.53 247.87 362.80 254.43
  Q 368.85 256.73 375.46 261.31
  Q 381.04 265.18 384.53 270.51
  Q 387.92 275.70 390.27 281.13
  Q 397.93 298.78 390.49 317.53
  Z
  M 366.10 299.23
  A 20.88 20.88 0.0 0 0 345.22 278.35
  A 20.88 20.88 0.0 0 0 324.34 299.23
  A 20.88 20.88 0.0 0 0 345.22 320.11
  A 20.88 20.88 0.0 0 0 366.10 299.23
  Z"
/>
<path fill="#0d2615" d="
  M 131.09 333.67
  L 126.04 344.59
  A 0.33 0.33 0.0 0 1 125.74 344.78
  L 96.61 344.86
  A 0.33 0.33 0.0 0 1 96.31 344.39
  L 138.43 253.19
  A 0.33 0.33 0.0 0 1 138.73 253.00
  L 161.60 252.97
  A 0.33 0.33 0.0 0 1 161.90 253.16
  L 203.77 344.32
  A 0.33 0.33 0.0 0 1 203.47 344.79
  L 174.74 344.82
  A 0.33 0.33 0.0 0 1 174.44 344.63
  L 169.21 333.59
  A 0.33 0.33 0.0 0 0 168.91 333.40
  L 131.39 333.48
  A 0.33 0.33 0.0 0 0 131.09 333.67
  Z
  M 141.56 308.54
  A 0.30 0.30 0.0 0 0 141.83 308.97
  L 158.38 309.05
  A 0.30 0.30 0.0 0 0 158.66 308.63
  L 150.48 289.66
  A 0.30 0.30 0.0 0 0 149.93 289.66
  L 141.56 308.54
  Z"
/>
<path fill="#0d2615" d="
  M 245.64 308.30
  Q 252.72 295.37 259.23 282.21
  Q 267.15 266.21 274.19 253.49
  Q 274.45 253.02 274.99 253.01
  L 304.06 253.01
  Q 304.71 253.01 304.46 253.62
  Q 302.69 257.72 300.39 262.23
  Q 294.49 273.82 288.96 284.11
  Q 286.17 289.30 283.57 294.86
  Q 280.71 300.96 278.32 305.56
  Q 270.48 320.65 261.91 336.68
  C 260.53 339.25 260.04 342.16 258.07 344.41
  Q 257.73 344.79 257.23 344.79
  L 234.48 344.81
  A 2.86 2.85 -13.8 0 1 231.95 343.28
  Q 226.42 332.68 220.82 322.61
  C 219.06 319.43 218.03 316.19 216.35 313.11
  Q 208.82 299.27 201.24 284.59
  Q 200.31 282.79 199.26 281.08
  C 197.89 278.85 197.28 276.35 196.10 274.03
  Q 193.79 269.44 191.41 264.79
  C 189.47 261.00 187.16 257.42 185.49 253.49
  Q 185.29 253.03 185.79 253.03
  L 215.83 252.99
  Q 216.36 252.99 216.70 253.40
  Q 217.53 254.39 217.93 255.60
  C 218.80 258.17 220.04 260.12 221.22 262.44
  Q 225.72 271.29 230.74 280.53
  Q 235.75 289.74 239.47 297.76
  C 241.19 301.46 243.26 304.82 245.27 308.31
  A 0.21 0.21 0.0 0 0 245.64 308.30
  Z"
/>
<path fill="#0d2615" d="
  M 129.10 376.49
  L 127.51 380.60
  A 0.38 0.38 0.0 0 1 127.16 380.84
  L 122.81 380.83
  A 0.38 0.38 0.0 0 1 122.45 380.31
  L 129.87 361.40
  A 0.38 0.38 0.0 0 1 130.22 361.16
  L 134.42 361.15
  A 0.38 0.38 0.0 0 1 134.77 361.40
  L 141.98 380.36
  A 0.38 0.38 0.0 0 1 141.62 380.87
  L 137.09 380.81
  A 0.38 0.38 0.0 0 1 136.73 380.54
  L 135.50 376.54
  A 0.38 0.38 0.0 0 0 135.14 376.27
  L 129.45 376.25
  A 0.38 0.38 0.0 0 0 129.10 376.49
  Z
  M 133.02 368.70
  A 0.39 0.39 0.0 0 0 132.28 368.55
  L 131.27 370.87
  Q 130.88 371.77 131.87 371.73
  L 133.02 371.68
  Q 134.04 371.63 133.55 370.73
  Q 133.04 369.77 133.02 368.70
  Z"
/>
<path fill="#0d2615" d="
  M 161.49 371.91
  L 165.49 361.42
  A 0.33 0.33 0.0 0 1 165.80 361.20
  L 170.41 361.23
  A 0.16 0.15 10.2 0 1 170.56 361.44
  L 163.49 380.24
  Q 163.25 380.88 162.58 380.87
  L 159.26 380.83
  Q 158.62 380.82 158.38 380.21
  Q 157.78 378.66 157.33 377.04
  Q 155.27 369.43 151.82 361.45
  A 0.21 0.20 77.6 0 1 152.00 361.16
  L 156.29 361.19
  A 0.37 0.36 -10.5 0 1 156.63 361.42
  L 160.66 371.92
  Q 161.07 373.00 161.49 371.91
  Z"
/>
<path fill="#0d2615" d="
  M 191.0040 381.3299
  A 10.30 9.24 90.2 0 1 181.8001 370.9977
  A 10.30 9.24 90.2 0 1 191.0760 360.7301
  A 10.30 9.24 90.2 0 1 200.2799 371.0623
  A 10.30 9.24 90.2 0 1 191.0040 381.3299
  Z
  M 191.2804 376.6199
  A 5.80 4.37 89.7 0 0 195.6199 370.7971
  A 5.80 4.37 89.7 0 0 191.2196 365.0201
  A 5.80 4.37 89.7 0 0 186.8801 370.8429
  A 5.80 4.37 89.7 0 0 191.2804 376.6199
  Z"
/>
<path fill="#0d2615" d="
  M 220.35 376.02
  L 227.40 376.02
  A 0.36 0.36 0.0 0 1 227.76 376.38
  L 227.77 380.47
  A 0.36 0.36 0.0 0 1 227.41 380.83
  L 215.87 380.80
  A 0.36 0.36 0.0 0 1 215.51 380.44
  L 215.51 361.61
  A 0.36 0.36 0.0 0 1 215.86 361.25
  L 219.59 361.10
  A 0.36 0.36 0.0 0 1 219.96 361.45
  L 219.99 375.66
  A 0.36 0.36 0.0 0 0 220.35 376.02
  Z"
/>
<path fill="#0d2615" d="
  M 248.92 376.39
  Q 250.50 376.65 251.86 374.01
  A 2.06 2.04 -31.8 0 0 252.10 373.01
  L 252.09 361.93
  Q 252.09 361.19 252.82 361.19
  L 256.30 361.18
  Q 257.07 361.18 257.04 361.96
  Q 256.90 366.06 257.04 370.20
  C 257.23 376.18 255.44 381.33 248.46 381.14
  C 244.27 381.03 241.32 377.73 241.10 373.71
  Q 240.92 370.37 241.05 361.91
  A 0.72 0.72 0.0 0 1 241.76 361.20
  L 245.32 361.15
  A 0.67 0.66 89.6 0 1 245.99 361.82
  L 246.00 372.95
  Q 246.00 375.91 248.92 376.39
  Z"
/>
<path fill="#0d2615" d="
  M 275.74 365.68
  L 271.55 365.71
  A 0.52 0.52 0.0 0 1 271.02 365.19
  L 271.03 361.72
  A 0.52 0.52 0.0 0 1 271.55 361.20
  L 285.42 361.20
  A 0.52 0.52 0.0 0 1 285.94 361.71
  L 286.00 365.20
  A 0.52 0.52 0.0 0 1 285.47 365.73
  L 281.64 365.66
  A 0.52 0.52 0.0 0 0 281.11 366.18
  L 281.13 380.37
  A 0.52 0.52 0.0 0 1 280.60 380.89
  L 276.77 380.82
  A 0.52 0.52 0.0 0 1 276.26 380.30
  L 276.27 366.20
  A 0.52 0.52 0.0 0 0 275.74 365.68
  Z"
/>
<path fill="#0d2615" d="
  M 328.8881 381.3297
  A 10.30 9.23 90.4 0 1 319.7302 370.9656
  A 10.30 9.23 90.4 0 1 329.0319 360.7303
  A 10.30 9.23 90.4 0 1 338.1898 371.0944
  A 10.30 9.23 90.4 0 1 328.8881 381.3297
  Z
  M 328.7902 376.6200
  A 5.80 4.36 89.8 0 0 333.1300 370.8048
  A 5.80 4.36 89.8 0 0 328.7498 365.0200
  A 5.80 4.36 89.8 0 0 324.4100 370.8352
  A 5.80 4.36 89.8 0 0 328.7902 376.6200
  Z"
/>
<path fill="#0d2615" d="
  M 357.66 380.89
  L 353.35 380.84
  A 0.32 0.32 0.0 0 1 353.03 380.52
  L 353.03 361.48
  A 0.32 0.32 0.0 0 1 353.36 361.16
  L 357.15 361.23
  A 0.32 0.32 0.0 0 1 357.40 361.36
  L 363.83 369.97
  A 0.32 0.32 0.0 0 0 364.41 369.77
  L 364.39 361.55
  A 0.32 0.32 0.0 0 1 364.70 361.23
  L 368.68 361.14
  A 0.32 0.32 0.0 0 1 369.01 361.46
  L 369.02 380.59
  A 0.32 0.32 0.0 0 1 368.69 380.92
  L 365.28 380.86
  A 0.32 0.32 0.0 0 1 365.02 380.72
  L 358.57 371.22
  A 0.32 0.32 0.0 0 0 357.99 371.40
  L 357.98 380.57
  A 0.32 0.32 0.0 0 1 357.66 380.89
  Z"
/>
<rect fill="#0d2615" x="300.26" y="361.19" width="4.48" height="19.66" rx="0.47"/>
</svg>
